<mxfile host="app.diagrams.net" modified="2020-10-05T12:04:12.049Z" agent="5.0 (Windows NT 10.0; Win64; x64) AppleWebKit/537.36 (KHTML, like Gecko) Chrome/85.0.4183.83 Safari/537.36" etag="cr9anPuniW1m8TN691JN" version="13.7.7" type="github">
  <diagram id="GS0gh4Sqh1Imd_AyxvJ1" name="Page-1">
    <mxGraphModel dx="1185" dy="770" grid="1" gridSize="10" guides="1" tooltips="1" connect="1" arrows="1" fold="1" page="1" pageScale="1" pageWidth="1169" pageHeight="827" math="1" shadow="0">
      <root>
        <mxCell id="0" />
        <mxCell id="1" parent="0" />
        <mxCell id="tYQ8jImL1KKshLSwCQYh-69" value="" style="endArrow=none;html=1;dashed=1;strokeWidth=1;fontFamily=Verdana;fontSize=14;fontColor=#B3B3B3;strokeColor=#330000;exitX=1;exitY=0.5;exitDx=0;exitDy=0;entryX=0;entryY=0.5;entryDx=0;entryDy=0;" edge="1" parent="1" source="A-RnJZwd3Cinr7Ehx1_a-3" target="A-RnJZwd3Cinr7Ehx1_a-8">
          <mxGeometry width="50" height="50" relative="1" as="geometry">
            <mxPoint x="450" y="480" as="sourcePoint" />
            <mxPoint x="660" y="480" as="targetPoint" />
          </mxGeometry>
        </mxCell>
        <mxCell id="A-RnJZwd3Cinr7Ehx1_a-79" value="" style="endArrow=none;dashed=1;html=1;strokeWidth=1;exitX=1;exitY=0.5;exitDx=0;exitDy=0;entryX=0;entryY=0.5;entryDx=0;entryDy=0;strokeColor=#B3B3B3;" parent="1" source="A-RnJZwd3Cinr7Ehx1_a-4" target="A-RnJZwd3Cinr7Ehx1_a-78" edge="1">
          <mxGeometry width="50" height="50" relative="1" as="geometry">
            <mxPoint x="200" y="220" as="sourcePoint" />
            <mxPoint x="700" y="220" as="targetPoint" />
          </mxGeometry>
        </mxCell>
        <mxCell id="A-RnJZwd3Cinr7Ehx1_a-1" value="" style="rounded=0;whiteSpace=wrap;html=1;strokeWidth=2;" parent="1" vertex="1">
          <mxGeometry x="80" y="80" width="120" height="40" as="geometry" />
        </mxCell>
        <mxCell id="A-RnJZwd3Cinr7Ehx1_a-2" value="" style="rounded=0;whiteSpace=wrap;html=1;strokeWidth=2;" parent="1" vertex="1">
          <mxGeometry x="80" y="120" width="120" height="40" as="geometry" />
        </mxCell>
        <mxCell id="A-RnJZwd3Cinr7Ehx1_a-3" value="&lt;span style=&quot;font-family: &amp;#34;courier new&amp;#34; ; font-size: 14px&quot;&gt;84.72.42.48&lt;/span&gt;" style="rounded=0;whiteSpace=wrap;html=1;strokeWidth=2;" parent="1" vertex="1">
          <mxGeometry x="80" y="160" width="120" height="40" as="geometry" />
        </mxCell>
        <mxCell id="A-RnJZwd3Cinr7Ehx1_a-4" value="" style="rounded=0;whiteSpace=wrap;html=1;strokeWidth=2;" parent="1" vertex="1">
          <mxGeometry x="80" y="200" width="120" height="40" as="geometry" />
        </mxCell>
        <mxCell id="A-RnJZwd3Cinr7Ehx1_a-5" value="" style="rounded=0;whiteSpace=wrap;html=1;strokeWidth=2;" parent="1" vertex="1">
          <mxGeometry x="80" y="240" width="120" height="40" as="geometry" />
        </mxCell>
        <mxCell id="A-RnJZwd3Cinr7Ehx1_a-11" value="" style="endArrow=none;html=1;strokeWidth=3;" parent="1" edge="1">
          <mxGeometry width="50" height="50" relative="1" as="geometry">
            <mxPoint x="120" y="320" as="sourcePoint" />
            <mxPoint x="740" y="320" as="targetPoint" />
          </mxGeometry>
        </mxCell>
        <mxCell id="A-RnJZwd3Cinr7Ehx1_a-12" value="" style="endArrow=none;html=1;strokeWidth=1;entryX=0.5;entryY=1;entryDx=0;entryDy=0;" parent="1" target="A-RnJZwd3Cinr7Ehx1_a-5" edge="1">
          <mxGeometry width="50" height="50" relative="1" as="geometry">
            <mxPoint x="140" y="320" as="sourcePoint" />
            <mxPoint x="650" y="350" as="targetPoint" />
          </mxGeometry>
        </mxCell>
        <mxCell id="A-RnJZwd3Cinr7Ehx1_a-14" value="" style="endArrow=none;dashed=1;html=1;strokeWidth=1;exitX=1;exitY=0.5;exitDx=0;exitDy=0;entryX=0;entryY=0.5;entryDx=0;entryDy=0;" parent="1" source="A-RnJZwd3Cinr7Ehx1_a-78" target="A-RnJZwd3Cinr7Ehx1_a-18" edge="1">
          <mxGeometry width="50" height="50" relative="1" as="geometry">
            <mxPoint x="600" y="400" as="sourcePoint" />
            <mxPoint x="360" y="220" as="targetPoint" />
          </mxGeometry>
        </mxCell>
        <mxCell id="A-RnJZwd3Cinr7Ehx1_a-18" value="" style="rounded=0;whiteSpace=wrap;html=1;strokeWidth=2;" parent="1" vertex="1">
          <mxGeometry x="700" y="200" width="60" height="40" as="geometry" />
        </mxCell>
        <mxCell id="A-RnJZwd3Cinr7Ehx1_a-19" value="" style="rounded=0;whiteSpace=wrap;html=1;strokeWidth=2;" parent="1" vertex="1">
          <mxGeometry x="700" y="240" width="60" height="40" as="geometry" />
        </mxCell>
        <mxCell id="A-RnJZwd3Cinr7Ehx1_a-20" value="" style="endArrow=none;html=1;strokeWidth=1;entryX=0.5;entryY=1;entryDx=0;entryDy=0;" parent="1" edge="1">
          <mxGeometry width="50" height="50" relative="1" as="geometry">
            <mxPoint x="719" y="320" as="sourcePoint" />
            <mxPoint x="719" y="280" as="targetPoint" />
          </mxGeometry>
        </mxCell>
        <mxCell id="A-RnJZwd3Cinr7Ehx1_a-21" value="L7" style="text;html=1;strokeColor=none;fillColor=none;align=right;verticalAlign=middle;whiteSpace=wrap;rounded=0;fontFamily=Verdana;" parent="1" vertex="1">
          <mxGeometry x="30" y="90" width="40" height="20" as="geometry" />
        </mxCell>
        <mxCell id="A-RnJZwd3Cinr7Ehx1_a-22" value="L4" style="text;html=1;strokeColor=none;fillColor=none;align=right;verticalAlign=middle;whiteSpace=wrap;rounded=0;fontFamily=Verdana;" parent="1" vertex="1">
          <mxGeometry x="30" y="130" width="40" height="20" as="geometry" />
        </mxCell>
        <mxCell id="A-RnJZwd3Cinr7Ehx1_a-23" value="L3" style="text;html=1;strokeColor=none;fillColor=none;align=right;verticalAlign=middle;whiteSpace=wrap;rounded=0;fontFamily=Verdana;" parent="1" vertex="1">
          <mxGeometry x="30" y="170" width="40" height="20" as="geometry" />
        </mxCell>
        <mxCell id="A-RnJZwd3Cinr7Ehx1_a-24" value="L2" style="text;html=1;strokeColor=none;fillColor=none;align=right;verticalAlign=middle;whiteSpace=wrap;rounded=0;fontFamily=Verdana;" parent="1" vertex="1">
          <mxGeometry x="30" y="210" width="40" height="20" as="geometry" />
        </mxCell>
        <mxCell id="A-RnJZwd3Cinr7Ehx1_a-25" value="L1" style="text;html=1;strokeColor=none;fillColor=none;align=right;verticalAlign=middle;whiteSpace=wrap;rounded=0;fontFamily=Verdana;" parent="1" vertex="1">
          <mxGeometry x="30" y="250" width="40" height="20" as="geometry" />
        </mxCell>
        <mxCell id="A-RnJZwd3Cinr7Ehx1_a-26" value="" style="endArrow=none;dashed=1;html=1;strokeWidth=1;entryX=0;entryY=0.5;entryDx=0;entryDy=0;" parent="1" source="A-RnJZwd3Cinr7Ehx1_a-80" target="A-RnJZwd3Cinr7Ehx1_a-9" edge="1">
          <mxGeometry width="50" height="50" relative="1" as="geometry">
            <mxPoint x="820" y="219" as="sourcePoint" />
            <mxPoint x="960" y="219.5" as="targetPoint" />
          </mxGeometry>
        </mxCell>
        <mxCell id="A-RnJZwd3Cinr7Ehx1_a-27" value="$$Host_1$$" style="text;html=1;strokeColor=none;fillColor=none;align=center;verticalAlign=middle;whiteSpace=wrap;rounded=0;fontFamily=Verdana;" parent="1" vertex="1">
          <mxGeometry x="110" y="50" width="40" height="20" as="geometry" />
        </mxCell>
        <mxCell id="A-RnJZwd3Cinr7Ehx1_a-29" value="$$Router_1$$" style="text;html=1;strokeColor=none;fillColor=none;align=center;verticalAlign=middle;whiteSpace=wrap;rounded=0;fontFamily=Verdana;" parent="1" vertex="1">
          <mxGeometry x="740" y="130" width="40" height="20" as="geometry" />
        </mxCell>
        <mxCell id="A-RnJZwd3Cinr7Ehx1_a-30" value="&lt;p class=&quot;p1&quot; style=&quot;margin: 0px ; font-stretch: normal ; line-height: normal ; font-size: 11px&quot;&gt;&lt;span class=&quot;s1&quot; style=&quot;background-color: rgb(255 , 255 , 255)&quot;&gt;&lt;font face=&quot;Courier New&quot; color=&quot;#b3b3b3&quot;&gt;b8:69:f4:c5:3c:97&lt;/font&gt;&lt;/span&gt;&lt;/p&gt;" style="text;html=1;strokeColor=none;fillColor=none;align=center;verticalAlign=middle;whiteSpace=wrap;rounded=0;rotation=0;" parent="1" vertex="1">
          <mxGeometry x="120" y="200" width="40" height="20" as="geometry" />
        </mxCell>
        <mxCell id="A-RnJZwd3Cinr7Ehx1_a-56" value="" style="group" parent="1" vertex="1" connectable="0">
          <mxGeometry x="1320" y="50" width="120" height="270" as="geometry" />
        </mxCell>
        <mxCell id="A-RnJZwd3Cinr7Ehx1_a-6" value="" style="rounded=0;whiteSpace=wrap;html=1;strokeWidth=2;" parent="A-RnJZwd3Cinr7Ehx1_a-56" vertex="1">
          <mxGeometry y="30" width="120" height="40" as="geometry" />
        </mxCell>
        <mxCell id="A-RnJZwd3Cinr7Ehx1_a-7" value="" style="rounded=0;whiteSpace=wrap;html=1;strokeWidth=2;" parent="A-RnJZwd3Cinr7Ehx1_a-56" vertex="1">
          <mxGeometry y="70" width="120" height="40" as="geometry" />
        </mxCell>
        <mxCell id="A-RnJZwd3Cinr7Ehx1_a-8" value="&lt;span style=&quot;font-family: &amp;#34;courier new&amp;#34; ; font-size: 14px&quot;&gt;147.86.1.71&lt;/span&gt;" style="rounded=0;whiteSpace=wrap;html=1;strokeWidth=2;" parent="A-RnJZwd3Cinr7Ehx1_a-56" vertex="1">
          <mxGeometry y="110" width="120" height="40" as="geometry" />
        </mxCell>
        <mxCell id="A-RnJZwd3Cinr7Ehx1_a-9" value="" style="rounded=0;whiteSpace=wrap;html=1;strokeWidth=2;" parent="A-RnJZwd3Cinr7Ehx1_a-56" vertex="1">
          <mxGeometry y="150" width="120" height="40" as="geometry" />
        </mxCell>
        <mxCell id="A-RnJZwd3Cinr7Ehx1_a-10" value="" style="rounded=0;whiteSpace=wrap;html=1;strokeWidth=2;" parent="A-RnJZwd3Cinr7Ehx1_a-56" vertex="1">
          <mxGeometry y="190" width="120" height="40" as="geometry" />
        </mxCell>
        <mxCell id="A-RnJZwd3Cinr7Ehx1_a-13" value="" style="endArrow=none;html=1;strokeWidth=1;entryX=0.5;entryY=1;entryDx=0;entryDy=0;" parent="A-RnJZwd3Cinr7Ehx1_a-56" target="A-RnJZwd3Cinr7Ehx1_a-10" edge="1">
          <mxGeometry width="50" height="50" relative="1" as="geometry">
            <mxPoint x="60" y="270" as="sourcePoint" />
            <mxPoint x="-110" y="300" as="targetPoint" />
          </mxGeometry>
        </mxCell>
        <mxCell id="A-RnJZwd3Cinr7Ehx1_a-28" value="$$Internet-Host_n$$" style="text;html=1;strokeColor=none;fillColor=none;align=center;verticalAlign=middle;whiteSpace=wrap;rounded=0;fontFamily=Verdana;" parent="A-RnJZwd3Cinr7Ehx1_a-56" vertex="1">
          <mxGeometry x="40" width="40" height="20" as="geometry" />
        </mxCell>
        <mxCell id="A-RnJZwd3Cinr7Ehx1_a-31" value="&lt;p class=&quot;p1&quot; style=&quot;margin: 0px ; font-stretch: normal ; line-height: normal ; font-size: 11px&quot;&gt;&lt;span class=&quot;s1&quot; style=&quot;background-color: rgb(255 , 255 , 255)&quot;&gt;&lt;font face=&quot;Courier New&quot; color=&quot;#b3b3b3&quot;&gt;c8:2a:14:55:aa:e3&lt;/font&gt;&lt;/span&gt;&lt;/p&gt;" style="text;html=1;strokeColor=none;fillColor=none;align=center;verticalAlign=middle;whiteSpace=wrap;rounded=0;rotation=0;" parent="A-RnJZwd3Cinr7Ehx1_a-56" vertex="1">
          <mxGeometry x="40" y="150" width="40" height="20" as="geometry" />
        </mxCell>
        <mxCell id="A-RnJZwd3Cinr7Ehx1_a-76" value="&lt;ol style=&quot;line-height: 200%&quot;&gt;&lt;li&gt;&lt;font style=&quot;font-size: 12px&quot;&gt;Router&lt;i&gt;interprets &lt;/i&gt;L2-Addresses (lookup Routing-Table)&lt;/font&gt;&lt;/li&gt;&lt;li&gt;&lt;font style=&quot;font-size: 12px&quot;&gt;a &lt;i&gt;new L2-frame&lt;/i&gt; is created on &quot;next&quot; L2-network, ie. a new set of L2-addresses&lt;/font&gt;&lt;/li&gt;&lt;li&gt;&lt;font style=&quot;font-size: 12px&quot;&gt;a copy of the&amp;nbsp;&lt;i&gt;L3-packet&lt;/i&gt; is put in the new frame/next-L2 network&amp;nbsp;&lt;i&gt;unchanged&lt;/i&gt;&lt;/font&gt;&lt;/li&gt;&lt;/ol&gt;" style="text;html=1;strokeColor=none;fillColor=none;align=left;verticalAlign=middle;whiteSpace=wrap;rounded=0;fontFamily=Verdana;fontSize=12;" parent="1" vertex="1">
          <mxGeometry x="480" y="60" width="640" height="20" as="geometry" />
        </mxCell>
        <mxCell id="A-RnJZwd3Cinr7Ehx1_a-78" value="" style="whiteSpace=wrap;html=1;aspect=fixed;strokeWidth=2;" parent="1" vertex="1">
          <mxGeometry x="690" y="216.33" width="10" height="10" as="geometry" />
        </mxCell>
        <mxCell id="A-RnJZwd3Cinr7Ehx1_a-80" value="" style="whiteSpace=wrap;html=1;aspect=fixed;strokeWidth=2;fontFamily=Verdana;fontSize=9;" parent="1" vertex="1">
          <mxGeometry x="820" y="214.67" width="10" height="10" as="geometry" />
        </mxCell>
        <mxCell id="A-RnJZwd3Cinr7Ehx1_a-81" value="" style="endArrow=none;dashed=1;html=1;strokeWidth=1;entryX=0;entryY=0.5;entryDx=0;entryDy=0;" parent="1" target="A-RnJZwd3Cinr7Ehx1_a-80" edge="1">
          <mxGeometry width="50" height="50" relative="1" as="geometry">
            <mxPoint x="820" y="219" as="sourcePoint" />
            <mxPoint x="1320" y="220" as="targetPoint" />
          </mxGeometry>
        </mxCell>
        <mxCell id="A-RnJZwd3Cinr7Ehx1_a-82" value="L3-Intermediate Device &quot;Router&quot; Operation" style="text;html=1;strokeColor=none;fillColor=none;align=center;verticalAlign=middle;whiteSpace=wrap;rounded=0;fontFamily=Verdana;fontSize=14;fontStyle=1" parent="1" vertex="1">
          <mxGeometry x="200" y="10" width="1120" height="20" as="geometry" />
        </mxCell>
        <mxCell id="tYQ8jImL1KKshLSwCQYh-1" value="&lt;span style=&quot;font-family: &amp;#34;courier new&amp;#34; ; font-size: 14px&quot;&gt;&lt;font color=&quot;#b3b3b3&quot;&gt;84.72.42.1&lt;/font&gt;&lt;/span&gt;" style="rounded=0;whiteSpace=wrap;html=1;strokeWidth=2;" vertex="1" parent="1">
          <mxGeometry x="700" y="160" width="120" height="40" as="geometry" />
        </mxCell>
        <mxCell id="tYQ8jImL1KKshLSwCQYh-21" value="" style="group" vertex="1" connectable="0" parent="1">
          <mxGeometry x="320" y="150.66999999999996" width="360" height="39.33000000000004" as="geometry" />
        </mxCell>
        <mxCell id="tYQ8jImL1KKshLSwCQYh-2" value="147.86.1.71" style="rounded=0;whiteSpace=wrap;html=1;strokeWidth=1;fillColor=#ffffff;fontFamily=Courier New;fontSize=14;align=center;" vertex="1" parent="tYQ8jImL1KKshLSwCQYh-21">
          <mxGeometry x="120" y="16.33000000000004" width="120" height="26" as="geometry" />
        </mxCell>
        <mxCell id="tYQ8jImL1KKshLSwCQYh-3" value="84.72.42.48" style="rounded=0;whiteSpace=wrap;html=1;strokeWidth=1;fillColor=#ffffff;fontFamily=Courier New;fontSize=14;align=center;" vertex="1" parent="tYQ8jImL1KKshLSwCQYh-21">
          <mxGeometry y="16.33000000000004" width="120" height="26" as="geometry" />
        </mxCell>
        <mxCell id="tYQ8jImL1KKshLSwCQYh-12" value="Source" style="text;html=1;strokeColor=none;fillColor=none;align=center;verticalAlign=middle;whiteSpace=wrap;rounded=0;fontFamily=Verdana;fontSize=10;" vertex="1" parent="tYQ8jImL1KKshLSwCQYh-21">
          <mxGeometry x="40.477619047619044" y="3" width="39.047619047619044" height="13.333333333333332" as="geometry" />
        </mxCell>
        <mxCell id="tYQ8jImL1KKshLSwCQYh-13" value="Destination" style="text;html=1;strokeColor=none;fillColor=none;align=center;verticalAlign=middle;whiteSpace=wrap;rounded=0;fontFamily=Verdana;fontSize=10;" vertex="1" parent="tYQ8jImL1KKshLSwCQYh-21">
          <mxGeometry x="160.48047619047617" y="3" width="39.047619047619044" height="13.333333333333332" as="geometry" />
        </mxCell>
        <mxCell id="tYQ8jImL1KKshLSwCQYh-16" value="" style="rounded=0;whiteSpace=wrap;html=1;strokeWidth=1;fillColor=#ffffff;fontFamily=Courier New;fontSize=14;align=center;" vertex="1" parent="tYQ8jImL1KKshLSwCQYh-21">
          <mxGeometry x="240" y="16.33" width="80" height="26" as="geometry" />
        </mxCell>
        <mxCell id="tYQ8jImL1KKshLSwCQYh-17" value="Payload/Data" style="text;html=1;strokeColor=none;fillColor=none;align=center;verticalAlign=middle;whiteSpace=wrap;rounded=0;fontFamily=Verdana;fontSize=10;" vertex="1" parent="tYQ8jImL1KKshLSwCQYh-21">
          <mxGeometry x="260.4804761904761" y="3" width="39.047619047619044" height="13.333333333333332" as="geometry" />
        </mxCell>
        <mxCell id="tYQ8jImL1KKshLSwCQYh-26" value="" style="endArrow=none;html=1;strokeWidth=1;entryX=0.5;entryY=1;entryDx=0;entryDy=0;" edge="1" parent="1">
          <mxGeometry width="50" height="50" relative="1" as="geometry">
            <mxPoint x="799.83" y="320" as="sourcePoint" />
            <mxPoint x="799.83" y="280" as="targetPoint" />
          </mxGeometry>
        </mxCell>
        <mxCell id="tYQ8jImL1KKshLSwCQYh-27" value="" style="endArrow=none;html=1;strokeWidth=3;" edge="1" parent="1">
          <mxGeometry width="50" height="50" relative="1" as="geometry">
            <mxPoint x="780" y="320" as="sourcePoint" />
            <mxPoint x="1400" y="320" as="targetPoint" />
          </mxGeometry>
        </mxCell>
        <mxCell id="tYQ8jImL1KKshLSwCQYh-28" value="" style="rounded=0;whiteSpace=wrap;html=1;strokeWidth=2;" vertex="1" parent="1">
          <mxGeometry x="760" y="240" width="60" height="40" as="geometry" />
        </mxCell>
        <mxCell id="tYQ8jImL1KKshLSwCQYh-29" value="" style="rounded=0;whiteSpace=wrap;html=1;strokeWidth=2;" vertex="1" parent="1">
          <mxGeometry x="760" y="200" width="60" height="40" as="geometry" />
        </mxCell>
        <mxCell id="tYQ8jImL1KKshLSwCQYh-30" value="" style="endArrow=none;html=1;strokeColor=#b85450;strokeWidth=5;fontFamily=Courier New;fontSize=14;fontColor=#B3B3B3;fillColor=#f8cecc;dashed=1;dashPattern=1 1;" edge="1" parent="1">
          <mxGeometry width="50" height="50" relative="1" as="geometry">
            <mxPoint x="760" y="360" as="sourcePoint" />
            <mxPoint x="759.5" y="200" as="targetPoint" />
          </mxGeometry>
        </mxCell>
        <mxCell id="tYQ8jImL1KKshLSwCQYh-72" value="" style="endArrow=block;html=1;strokeWidth=6;fontFamily=Verdana;fontSize=10;endFill=1;strokeColor=#330000;" edge="1" parent="1">
          <mxGeometry width="50" height="50" relative="1" as="geometry">
            <mxPoint x="642" y="179.8" as="sourcePoint" />
            <mxPoint x="662" y="179.8" as="targetPoint" />
          </mxGeometry>
        </mxCell>
        <mxCell id="tYQ8jImL1KKshLSwCQYh-68" value="LAN 2" style="text;html=1;strokeColor=none;fillColor=none;align=center;verticalAlign=middle;whiteSpace=wrap;rounded=0;fontFamily=Verdana;fontSize=12;" vertex="1" parent="1">
          <mxGeometry x="1040" y="320" width="110" height="20" as="geometry" />
        </mxCell>
        <mxCell id="tYQ8jImL1KKshLSwCQYh-109" value="" style="endArrow=classicThin;dashed=1;html=1;strokeWidth=2;fontFamily=Verdana;fontSize=14;fontColor=#000000;curved=1;endFill=1;fillColor=#dae8fc;strokeColor=#6c8ebf;" edge="1" parent="1">
          <mxGeometry width="50" height="50" relative="1" as="geometry">
            <mxPoint x="480" y="150" as="sourcePoint" />
            <mxPoint x="1130" y="150" as="targetPoint" />
            <Array as="points">
              <mxPoint x="590" y="120" />
              <mxPoint x="810" y="100" />
              <mxPoint x="1040" y="120" />
            </Array>
          </mxGeometry>
        </mxCell>
        <mxCell id="tYQ8jImL1KKshLSwCQYh-53" value="LAN 1" style="text;html=1;strokeColor=none;fillColor=none;align=center;verticalAlign=middle;whiteSpace=wrap;rounded=0;fontFamily=Verdana;fontSize=12;" vertex="1" parent="1">
          <mxGeometry x="350" y="320" width="110" height="20" as="geometry" />
        </mxCell>
        <mxCell id="tYQ8jImL1KKshLSwCQYh-112" value="" style="group" vertex="1" connectable="0" parent="1">
          <mxGeometry x="230" y="193.86" width="430" height="40" as="geometry" />
        </mxCell>
        <mxCell id="tYQ8jImL1KKshLSwCQYh-39" value="" style="endArrow=block;html=1;strokeWidth=6;fontFamily=Verdana;fontSize=10;endFill=1;" edge="1" parent="tYQ8jImL1KKshLSwCQYh-112">
          <mxGeometry width="50" height="50" relative="1" as="geometry">
            <mxPoint x="410" y="27.16999999999996" as="sourcePoint" />
            <mxPoint x="430" y="27.16999999999996" as="targetPoint" />
          </mxGeometry>
        </mxCell>
        <mxCell id="tYQ8jImL1KKshLSwCQYh-40" value="" style="rounded=0;whiteSpace=wrap;html=1;strokeWidth=1;fontFamily=Verdana;align=right;fontSize=10;" vertex="1" parent="tYQ8jImL1KKshLSwCQYh-112">
          <mxGeometry y="13.333333333333371" width="117.14285714285714" height="26.666666666666664" as="geometry" />
        </mxCell>
        <mxCell id="tYQ8jImL1KKshLSwCQYh-41" value="" style="rounded=0;whiteSpace=wrap;html=1;strokeWidth=1;fontFamily=Verdana;align=right;fontSize=10;" vertex="1" parent="tYQ8jImL1KKshLSwCQYh-112">
          <mxGeometry x="117.14285714285711" y="13.333333333333371" width="117.14285714285714" height="26.666666666666664" as="geometry" />
        </mxCell>
        <mxCell id="tYQ8jImL1KKshLSwCQYh-42" value="" style="rounded=0;whiteSpace=wrap;html=1;strokeWidth=1;fontFamily=Verdana;align=right;fontSize=10;" vertex="1" parent="tYQ8jImL1KKshLSwCQYh-112">
          <mxGeometry x="234.28571428571422" y="13.333333333333371" width="117.14285714285714" height="26.666666666666664" as="geometry" />
        </mxCell>
        <mxCell id="tYQ8jImL1KKshLSwCQYh-43" value="" style="rounded=0;whiteSpace=wrap;html=1;strokeWidth=1;fontFamily=Verdana;align=right;fontSize=10;" vertex="1" parent="tYQ8jImL1KKshLSwCQYh-112">
          <mxGeometry x="351.42857142857144" y="13.333333333333371" width="58.57142857142857" height="26.666666666666664" as="geometry" />
        </mxCell>
        <mxCell id="tYQ8jImL1KKshLSwCQYh-44" value="&lt;p class=&quot;p1&quot; style=&quot;margin: 0px ; font-stretch: normal ; line-height: normal ; font-size: 11px&quot;&gt;&lt;span class=&quot;s1&quot; style=&quot;background-color: rgb(255 , 255 , 255)&quot;&gt;&lt;font face=&quot;Courier New&quot;&gt;b8:69:f4:c5:3c:97&lt;/font&gt;&lt;/span&gt;&lt;/p&gt;" style="text;html=1;strokeColor=none;fillColor=none;align=center;verticalAlign=middle;whiteSpace=wrap;rounded=0;rotation=0;" vertex="1" parent="tYQ8jImL1KKshLSwCQYh-112">
          <mxGeometry x="156.19047619047615" y="20" width="39.047619047619044" height="13.333333333333332" as="geometry" />
        </mxCell>
        <mxCell id="tYQ8jImL1KKshLSwCQYh-45" value="&lt;p class=&quot;p1&quot; style=&quot;margin: 0px ; font-stretch: normal ; line-height: normal ; font-size: 11px&quot;&gt;&lt;span class=&quot;s1&quot; style=&quot;background-color: rgb(255 , 255 , 255)&quot;&gt;&lt;font face=&quot;Courier New&quot;&gt;c8:2a:14:55:aa:e3&lt;/font&gt;&lt;/span&gt;&lt;/p&gt;" style="text;html=1;strokeColor=none;fillColor=none;align=center;verticalAlign=middle;whiteSpace=wrap;rounded=0;rotation=0;" vertex="1" parent="tYQ8jImL1KKshLSwCQYh-112">
          <mxGeometry x="40" y="20.170000000000016" width="38.1" height="13.33" as="geometry" />
        </mxCell>
        <mxCell id="tYQ8jImL1KKshLSwCQYh-46" value="&lt;font&gt;Destination&lt;/font&gt;" style="text;html=1;strokeColor=none;fillColor=none;align=center;verticalAlign=middle;whiteSpace=wrap;rounded=0;fontFamily=Verdana;fontSize=10;" vertex="1" parent="tYQ8jImL1KKshLSwCQYh-112">
          <mxGeometry x="39.04761904761904" width="39.047619047619044" height="13.333333333333332" as="geometry" />
        </mxCell>
        <mxCell id="tYQ8jImL1KKshLSwCQYh-47" value="&lt;font&gt;Source&lt;/font&gt;" style="text;html=1;strokeColor=none;fillColor=none;align=center;verticalAlign=middle;whiteSpace=wrap;rounded=0;fontFamily=Verdana;fontSize=10;" vertex="1" parent="tYQ8jImL1KKshLSwCQYh-112">
          <mxGeometry x="156.19047619047615" width="39.047619047619044" height="13.333333333333332" as="geometry" />
        </mxCell>
        <mxCell id="tYQ8jImL1KKshLSwCQYh-48" value="&lt;font&gt;Payload/Data&lt;/font&gt;" style="text;html=1;strokeColor=none;fillColor=none;align=center;verticalAlign=middle;whiteSpace=wrap;rounded=0;fontFamily=Verdana;fontSize=10;" vertex="1" parent="tYQ8jImL1KKshLSwCQYh-112">
          <mxGeometry x="273.33333333333326" width="39.047619047619044" height="13.333333333333332" as="geometry" />
        </mxCell>
        <mxCell id="tYQ8jImL1KKshLSwCQYh-49" value="&lt;font&gt;FCS&lt;/font&gt;" style="text;html=1;strokeColor=none;fillColor=none;align=center;verticalAlign=middle;whiteSpace=wrap;rounded=0;fontFamily=Verdana;fontSize=10;" vertex="1" parent="tYQ8jImL1KKshLSwCQYh-112">
          <mxGeometry x="361.19047619047615" width="39.047619047619044" height="13.333333333333332" as="geometry" />
        </mxCell>
        <mxCell id="tYQ8jImL1KKshLSwCQYh-113" value="" style="endArrow=none;html=1;strokeWidth=2;fontFamily=Verdana;fontSize=14;fontColor=#000000;endFill=0;fillColor=#dae8fc;strokeColor=#6c8ebf;rounded=1;" edge="1" parent="tYQ8jImL1KKshLSwCQYh-112">
          <mxGeometry width="50" height="50" relative="1" as="geometry">
            <mxPoint x="90" as="sourcePoint" />
            <mxPoint x="410" as="targetPoint" />
            <Array as="points">
              <mxPoint x="90" y="10" />
              <mxPoint x="280" y="10" />
              <mxPoint x="290" y="30" />
              <mxPoint x="290" y="10" />
              <mxPoint x="410" y="10" />
            </Array>
          </mxGeometry>
        </mxCell>
        <mxCell id="tYQ8jImL1KKshLSwCQYh-114" value="" style="group" vertex="1" connectable="0" parent="1">
          <mxGeometry x="400" y="499.99999999999994" width="360" height="39.33000000000004" as="geometry" />
        </mxCell>
        <mxCell id="tYQ8jImL1KKshLSwCQYh-115" value="147.86.1.71" style="rounded=0;whiteSpace=wrap;html=1;strokeWidth=1;fillColor=#ffffff;fontFamily=Courier New;fontSize=14;align=center;" vertex="1" parent="tYQ8jImL1KKshLSwCQYh-114">
          <mxGeometry x="120" y="16.33000000000004" width="120" height="26" as="geometry" />
        </mxCell>
        <mxCell id="tYQ8jImL1KKshLSwCQYh-116" value="84.72.42.48" style="rounded=0;whiteSpace=wrap;html=1;strokeWidth=1;fillColor=#ffffff;fontFamily=Courier New;fontSize=14;align=center;" vertex="1" parent="tYQ8jImL1KKshLSwCQYh-114">
          <mxGeometry y="16.33000000000004" width="120" height="26" as="geometry" />
        </mxCell>
        <mxCell id="tYQ8jImL1KKshLSwCQYh-117" value="Source" style="text;html=1;strokeColor=none;fillColor=none;align=center;verticalAlign=middle;whiteSpace=wrap;rounded=0;fontFamily=Verdana;fontSize=10;" vertex="1" parent="tYQ8jImL1KKshLSwCQYh-114">
          <mxGeometry x="40.477619047619044" y="3" width="39.047619047619044" height="13.333333333333332" as="geometry" />
        </mxCell>
        <mxCell id="tYQ8jImL1KKshLSwCQYh-118" value="Destination" style="text;html=1;strokeColor=none;fillColor=none;align=center;verticalAlign=middle;whiteSpace=wrap;rounded=0;fontFamily=Verdana;fontSize=10;" vertex="1" parent="tYQ8jImL1KKshLSwCQYh-114">
          <mxGeometry x="160.48047619047617" y="3" width="39.047619047619044" height="13.333333333333332" as="geometry" />
        </mxCell>
        <mxCell id="tYQ8jImL1KKshLSwCQYh-119" value="" style="rounded=0;whiteSpace=wrap;html=1;strokeWidth=1;fillColor=#ffffff;fontFamily=Courier New;fontSize=14;align=center;" vertex="1" parent="tYQ8jImL1KKshLSwCQYh-114">
          <mxGeometry x="240" y="16.33" width="80" height="26" as="geometry" />
        </mxCell>
        <mxCell id="tYQ8jImL1KKshLSwCQYh-120" value="Payload/Data" style="text;html=1;strokeColor=none;fillColor=none;align=center;verticalAlign=middle;whiteSpace=wrap;rounded=0;fontFamily=Verdana;fontSize=10;" vertex="1" parent="tYQ8jImL1KKshLSwCQYh-114">
          <mxGeometry x="260.4804761904761" y="3" width="39.047619047619044" height="13.333333333333332" as="geometry" />
        </mxCell>
        <mxCell id="tYQ8jImL1KKshLSwCQYh-121" value="" style="endArrow=block;html=1;strokeWidth=6;fontFamily=Verdana;fontSize=10;endFill=1;strokeColor=#330000;" edge="1" parent="1">
          <mxGeometry width="50" height="50" relative="1" as="geometry">
            <mxPoint x="722.0000000000002" y="529.1300000000001" as="sourcePoint" />
            <mxPoint x="742.0000000000002" y="529.1300000000001" as="targetPoint" />
          </mxGeometry>
        </mxCell>
        <mxCell id="tYQ8jImL1KKshLSwCQYh-122" value="" style="group" vertex="1" connectable="0" parent="1">
          <mxGeometry x="310" y="543.19" width="430" height="40" as="geometry" />
        </mxCell>
        <mxCell id="tYQ8jImL1KKshLSwCQYh-123" value="" style="endArrow=block;html=1;strokeWidth=6;fontFamily=Verdana;fontSize=10;endFill=1;" edge="1" parent="tYQ8jImL1KKshLSwCQYh-122">
          <mxGeometry width="50" height="50" relative="1" as="geometry">
            <mxPoint x="410" y="27.16999999999996" as="sourcePoint" />
            <mxPoint x="430" y="27.16999999999996" as="targetPoint" />
          </mxGeometry>
        </mxCell>
        <mxCell id="tYQ8jImL1KKshLSwCQYh-124" value="" style="rounded=0;whiteSpace=wrap;html=1;strokeWidth=1;fontFamily=Verdana;align=right;fontSize=10;" vertex="1" parent="tYQ8jImL1KKshLSwCQYh-122">
          <mxGeometry y="13.333333333333371" width="117.14285714285714" height="26.666666666666664" as="geometry" />
        </mxCell>
        <mxCell id="tYQ8jImL1KKshLSwCQYh-125" value="" style="rounded=0;whiteSpace=wrap;html=1;strokeWidth=1;fontFamily=Verdana;align=right;fontSize=10;" vertex="1" parent="tYQ8jImL1KKshLSwCQYh-122">
          <mxGeometry x="117.14285714285711" y="13.333333333333371" width="117.14285714285714" height="26.666666666666664" as="geometry" />
        </mxCell>
        <mxCell id="tYQ8jImL1KKshLSwCQYh-126" value="" style="rounded=0;whiteSpace=wrap;html=1;strokeWidth=1;fontFamily=Verdana;align=right;fontSize=10;" vertex="1" parent="tYQ8jImL1KKshLSwCQYh-122">
          <mxGeometry x="234.28571428571422" y="13.333333333333371" width="117.14285714285714" height="26.666666666666664" as="geometry" />
        </mxCell>
        <mxCell id="tYQ8jImL1KKshLSwCQYh-127" value="" style="rounded=0;whiteSpace=wrap;html=1;strokeWidth=1;fontFamily=Verdana;align=right;fontSize=10;" vertex="1" parent="tYQ8jImL1KKshLSwCQYh-122">
          <mxGeometry x="351.42857142857144" y="13.333333333333371" width="58.57142857142857" height="26.666666666666664" as="geometry" />
        </mxCell>
        <mxCell id="tYQ8jImL1KKshLSwCQYh-128" value="&lt;p class=&quot;p1&quot; style=&quot;margin: 0px ; font-stretch: normal ; line-height: normal ; font-size: 11px&quot;&gt;&lt;span class=&quot;s1&quot; style=&quot;background-color: rgb(255 , 255 , 255)&quot;&gt;&lt;font face=&quot;Courier New&quot;&gt;b8:69:f4:c5:3c:97&lt;/font&gt;&lt;/span&gt;&lt;/p&gt;" style="text;html=1;strokeColor=none;fillColor=none;align=center;verticalAlign=middle;whiteSpace=wrap;rounded=0;rotation=0;" vertex="1" parent="tYQ8jImL1KKshLSwCQYh-122">
          <mxGeometry x="156.19047619047615" y="20" width="39.047619047619044" height="13.333333333333332" as="geometry" />
        </mxCell>
        <mxCell id="tYQ8jImL1KKshLSwCQYh-129" value="&lt;p class=&quot;p1&quot; style=&quot;margin: 0px ; font-stretch: normal ; line-height: normal ; font-size: 11px&quot;&gt;&lt;span class=&quot;s1&quot; style=&quot;background-color: rgb(255 , 255 , 255)&quot;&gt;&lt;font face=&quot;Courier New&quot;&gt;c8:2a:14:55:aa:e3&lt;/font&gt;&lt;/span&gt;&lt;/p&gt;" style="text;html=1;strokeColor=none;fillColor=none;align=center;verticalAlign=middle;whiteSpace=wrap;rounded=0;rotation=0;" vertex="1" parent="tYQ8jImL1KKshLSwCQYh-122">
          <mxGeometry x="40" y="20.170000000000016" width="38.1" height="13.33" as="geometry" />
        </mxCell>
        <mxCell id="tYQ8jImL1KKshLSwCQYh-130" value="&lt;font&gt;Destination&lt;/font&gt;" style="text;html=1;strokeColor=none;fillColor=none;align=center;verticalAlign=middle;whiteSpace=wrap;rounded=0;fontFamily=Verdana;fontSize=10;" vertex="1" parent="tYQ8jImL1KKshLSwCQYh-122">
          <mxGeometry x="39.04761904761904" width="39.047619047619044" height="13.333333333333332" as="geometry" />
        </mxCell>
        <mxCell id="tYQ8jImL1KKshLSwCQYh-131" value="&lt;font&gt;Source&lt;/font&gt;" style="text;html=1;strokeColor=none;fillColor=none;align=center;verticalAlign=middle;whiteSpace=wrap;rounded=0;fontFamily=Verdana;fontSize=10;" vertex="1" parent="tYQ8jImL1KKshLSwCQYh-122">
          <mxGeometry x="156.19047619047615" width="39.047619047619044" height="13.333333333333332" as="geometry" />
        </mxCell>
        <mxCell id="tYQ8jImL1KKshLSwCQYh-132" value="&lt;font&gt;Payload/Data&lt;/font&gt;" style="text;html=1;strokeColor=none;fillColor=none;align=center;verticalAlign=middle;whiteSpace=wrap;rounded=0;fontFamily=Verdana;fontSize=10;" vertex="1" parent="tYQ8jImL1KKshLSwCQYh-122">
          <mxGeometry x="273.33333333333326" width="39.047619047619044" height="13.333333333333332" as="geometry" />
        </mxCell>
        <mxCell id="tYQ8jImL1KKshLSwCQYh-133" value="&lt;font&gt;FCS&lt;/font&gt;" style="text;html=1;strokeColor=none;fillColor=none;align=center;verticalAlign=middle;whiteSpace=wrap;rounded=0;fontFamily=Verdana;fontSize=10;" vertex="1" parent="tYQ8jImL1KKshLSwCQYh-122">
          <mxGeometry x="361.19047619047615" width="39.047619047619044" height="13.333333333333332" as="geometry" />
        </mxCell>
        <mxCell id="tYQ8jImL1KKshLSwCQYh-134" value="" style="endArrow=none;html=1;strokeWidth=2;fontFamily=Verdana;fontSize=14;fontColor=#000000;endFill=0;fillColor=#dae8fc;strokeColor=#6c8ebf;rounded=1;" edge="1" parent="tYQ8jImL1KKshLSwCQYh-122">
          <mxGeometry width="50" height="50" relative="1" as="geometry">
            <mxPoint x="90" as="sourcePoint" />
            <mxPoint x="410" as="targetPoint" />
            <Array as="points">
              <mxPoint x="90" y="10" />
              <mxPoint x="280" y="10" />
              <mxPoint x="290" y="30" />
              <mxPoint x="290" y="10" />
              <mxPoint x="410" y="10" />
            </Array>
          </mxGeometry>
        </mxCell>
      </root>
    </mxGraphModel>
  </diagram>
</mxfile>
